Coordinates
version=1
nRows=8
nColumns=69
inDegrees=yes

Units are S.I. units (second, meters, Newtons, ...)
If the header above contains a line with 'inDegrees', this indicates whether rotational values are in degrees (yes) or radians (no).

endheader
time	pelvis_tilt	pelvis_list	pelvis_rotation	pelvis_tx	pelvis_ty	pelvis_tz	hip_flexion_r	hip_adduction_r	hip_rotation_r	knee_angle_r	knee_angle_r_beta	ankle_angle_r	subtalar_angle_r	mtp_angle_r	hip_flexion_l	hip_adduction_l	hip_rotation_l	knee_angle_l	knee_angle_l_beta	ankle_angle_l	subtalar_angle_l	mtp_angle_l	L5_S1_Flex_Ext	L5_S1_Lat_Bending	L5_S1_axial_rotation	L4_L5_Flex_Ext	L4_L5_Lat_Bending	L4_L5_axial_rotation	L3_L4_Flex_Ext	L3_L4_Lat_Bending	L3_L4_axial_rotation	L2_L3_Flex_Ext	L2_L3_Lat_Bending	L2_L3_axial_rotation	L1_L2_Flex_Ext	L1_L2_Lat_Bending	L1_L2_axial_rotation	L1_T12_Flex_Ext	L1_T12_Lat_Bending	L1_T12_axial_rotation	Abs_r3	Abs_r2	Abs_r1	Abs_t1	Abs_t2	neck_flexion	neck_bending	neck_rotation	sh_tx_r	sh_ty_r	sh_tz_r	sh_plane_elev_r	sh_elev_r	sh_axial_rot_r	elbow_flex_r	pro_sup_r	wrist_flex_r	wrist_dev_r	sh_tx_l	sh_ty_l	sh_tz_l	sh_plane_elev_l	sh_elev_l	sh_axial_rot_l	elbow_flex_l	pro_sup_l	wrist_flex_l	wrist_dev_l
      0.41666670	    -15.41812019	      1.01066783	   -107.03856025	     -0.06145890	      0.92012294	     -1.16052728	     28.17560704	     -6.79455645	    -17.40234579	     64.69095748	      1.12907020	     10.35764366	     -9.11406106	      0.00000000	     29.00129327	    -11.29810243	     10.02659175	     54.75756564	      0.95569981	     19.11612968	    -19.32903236	      0.00000000	     -0.04482144	     -1.41500412	      0.71783267	     -0.08323789	     -1.88195548	      0.76269721	     -0.07363714	     -3.44044102	      0.76269721	     -0.05122642	     -3.44044102	      0.62810358	     -0.04162119	     -2.88547641	      0.58323904	     -0.02561097	     -2.19184138	      0.53837450	     -0.32015505	    -16.00680963	      3.99236995	      0.00000000	      0.00000000	      0.00000000	      0.00000000	      0.00000000	      0.03209263	      0.00505442	     -0.00464936	    -12.24510105	     33.45670923	    -18.17224771	    100.41977781	     89.99559364	      0.00000000	      0.00000000	     -0.01073580	     -0.01510817	     -0.00291839	     -8.01320680	     31.47149404	      5.06353360	     24.96588638	     89.99559364	      0.00000000	      0.00000000
      0.43333330	    -15.62080817	      0.72590301	   -106.68569601	     -0.06323954	      0.91950964	     -1.15098009	     28.22189292	     -8.21483976	    -16.46946638	     62.62975956	      1.09309551	     15.64175703	     -6.41923863	      0.00000000	     28.05451692	    -11.24886154	      9.99930437	     54.84254037	      0.95718290	     20.74187987	    -19.22925339	      0.00000000	     -0.04927002	     -1.51927577	      0.55798236	     -0.09149936	     -2.02063677	      0.59285626	     -0.08094572	     -3.69396710	      0.59285626	     -0.05631071	     -3.69396710	      0.48823457	     -0.04575215	     -3.09810714	      0.45336067	     -0.02815289	     -2.35335816	      0.41848677	     -0.35193086	    -17.18635132	      3.10333051	      0.00000000	      0.00000000	      0.00000000	      0.00000000	      0.00000000	      0.03176215	      0.00632475	     -0.00464484	    -12.30922503	     33.86247923	    -18.70434223	    101.25314629	     89.99559364	      0.00000000	      0.00000000	     -0.01091228	     -0.01443899	     -0.00297730	     -7.97504112	     32.45168224	      5.20110467	     25.22886346	     89.99559364	      0.00000000	      0.00000000
      0.45000000	    -16.18442880	      0.49933500	   -105.83806170	     -0.06521281	      0.91896362	     -1.14055845	     28.16415217	     -9.55007831	    -16.08478420	     60.63117293	      1.05821360	     17.33912022	     -5.23391825	      0.00000000	     27.34338006	    -11.48659740	     10.50531776	     55.21463774	      0.96367722	     21.98669201	    -19.11745111	      0.00000000	     -0.05290870	     -1.59058685	      0.39389976	     -0.09825675	     -2.11548052	      0.41851850	     -0.08692371	     -3.86735288	      0.41851850	     -0.06046936	     -3.86735288	      0.34466229	     -0.04913102	     -3.24352471	      0.32004356	     -0.03023203	     -2.46381904	      0.29542482	     -0.37792157	    -17.99303661	      2.19075230	      0.00000000	      0.00000000	      0.00000000	      0.00000000	      0.00000000	      0.03019031	      0.00699551	     -0.00471846	    -12.64893367	     34.33195925	    -19.14696858	    101.57193051	     89.99559364	      0.00000000	      0.00000000	     -0.01023423	     -0.01368704	     -0.00308790	     -7.88245086	     33.43726444	      5.22743580	     25.63730607	     89.99559364	      0.00000000	      0.00000000
      0.46666670	    -17.10300402	      0.51927821	   -104.43236314	     -0.06697223	      0.91800101	     -1.12962609	     28.18889116	    -10.92213019	    -16.42661617	     58.89327748	      1.02788160	     17.44012966	     -3.28105988	      0.00000000	     27.14833460	    -12.04585961	     11.55032800	     55.85775347	      0.97490171	     22.92228786	    -19.04086642	      0.00000000	     -0.05150353	     -1.61175642	      0.15131966	     -0.09564721	     -2.14363605	      0.16077714	     -0.08461516	     -3.91882457	      0.16077714	     -0.05886339	     -3.91882457	      0.13240470	     -0.04782618	     -3.28669370	      0.12294722	     -0.02942912	     -2.49661070	      0.11348975	     -0.36788459	    -18.23251103	      0.84159456	      0.00000000	      0.00000000	      0.00000000	      0.00000000	      0.00000000	      0.02868330	      0.00755585	     -0.00463144	    -13.27460846	     34.88365845	    -19.45247097	    102.23095409	     89.99559364	      0.00000000	      0.00000000	     -0.01036282	     -0.01311663	     -0.00319801	     -7.91152313	     34.25143762	      5.17665212	     26.14785822	     89.99559364	      0.00000000	      0.00000000
      0.48333330	    -18.15092339	      0.36871487	   -103.14208859	     -0.06923258	      0.91781331	     -1.11892077	     28.16377136	    -12.09391863	    -16.39837767	     57.29963936	      1.00006737	     15.68138931	     -2.07530037	      0.00000000	     26.70644128	    -12.91125815	     12.38828582	     56.38335093	      0.98407512	     23.72451939	    -19.05463418	      0.00000000	     -0.05268358	     -1.64250875	      0.01078990	     -0.09783867	     -2.18453664	      0.01146426	     -0.08655385	     -3.99359578	      0.01146426	     -0.06021206	     -3.99359578	      0.00944116	     -0.04892197	     -3.34940385	      0.00876679	     -0.03010340	     -2.54424606	      0.00809242	     -0.37631352	    -18.58038750	      0.06001016	      0.00000000	      0.00000000	      0.00000000	      0.00000000	      0.00000000	      0.02573849	      0.00687125	     -0.00464600	    -13.93965285	     35.38419629	    -20.02866904	    102.13869318	     89.99559364	      0.00000000	      0.00000000	     -0.00884641	     -0.01216572	     -0.00341331	     -7.85055964	     35.26074407	      5.06969401	     26.59084470	     89.99559364	      0.00000000	      0.00000000
      0.50000000	    -20.24813527	      0.58937020	   -100.75300986	     -0.06965108	      0.91676520	     -1.10835896	     27.67337829	    -12.67089435	    -17.87896535	     55.33343213	      0.96575058	     13.24269195	     -1.25886306	      0.00000000	     27.34480241	    -14.40979544	     14.80927205	     57.43698361	      1.00246448	     24.15424858	    -18.92643713	      0.00000000	     -0.05260479	     -1.51316933	     -0.28836554	     -0.09769235	     -2.01251521	     -0.30638839	     -0.08642441	     -3.67911990	     -0.30638839	     -0.06012201	     -3.67911990	     -0.25231985	     -0.04884881	     -3.08565489	     -0.23429700	     -0.03005838	     -2.34389929	     -0.21627416	     -0.37575074	    -17.11727408	     -1.60380265	      0.00000000	      0.00000000	      0.00000000	      0.00000000	      0.00000000	      0.02860045	      0.00669759	     -0.00457080	    -16.75488422	     36.37168486	    -19.72605120	    103.37519215	     89.99559364	      0.00000000	      0.00000000	     -0.00714021	     -0.01284105	     -0.00329690	     -8.17442421	     35.43044343	      4.20642346	     27.61448887	     89.99559364	      0.00000000	      0.00000000
      0.51666670	    -21.61857564	      0.45923220	    -99.13184375	     -0.07103780	      0.91685249	     -1.09911640	     27.51932153	    -13.54461757	    -17.99571441	     53.72427897	      0.93766556	     10.76653982	      0.07619562	      0.00000000	     27.34915852	    -15.56413050	     16.07473329	     57.94665208	      1.01135987	     24.54009945	    -18.97098104	      0.00000000	     -0.05243906	     -1.50748359	     -0.45368529	     -0.09738457	     -2.00495317	     -0.48204062	     -0.08615213	     -3.66529559	     -0.48204062	     -0.05993260	     -3.66529559	     -0.39697463	     -0.04869491	     -3.07406053	     -0.36861930	     -0.02996368	     -2.33509207	     -0.34026397	     -0.37456694	    -17.05295582	     -2.52326149	      0.00000000	      0.00000000	      0.00000000	      0.00000000	      0.00000000	      0.02689978	      0.00562691	     -0.00456582	    -17.85050313	     36.74763183	    -20.61926370	    102.84192345	     89.99559364	      0.00000000	      0.00000000	     -0.00631411	     -0.01262229	     -0.00354320	     -8.06071710	     36.44401024	      4.07661242	     28.08664174	     89.99559364	      0.00000000	      0.00000000
      0.53333330	    -23.88642837	      0.62478427	    -96.77185087	     -0.07079721	      0.91613234	     -1.09077655	     26.92451100	    -13.56529024	    -19.20828645	     51.53600625	      0.89947299	      8.62418505	      0.54886657	      0.00000000	     28.41633088	    -17.17045205	     18.77159602	     58.88652089	      1.02776367	     24.49721251	    -18.94324113	      0.00000000	     -0.05073562	     -1.35774294	     -0.66447268	     -0.09422112	     -1.80579810	     -0.70600223	     -0.08335355	     -3.30121617	     -0.70600223	     -0.05798574	     -3.30121617	     -0.58141360	     -0.04711310	     -2.76870939	     -0.53988406	     -0.02899033	     -2.10314381	     -0.49835451	     -0.36239945	    -15.35905964	     -3.69559772	      0.00000000	      0.00000000	      0.00000000	      0.00000000	      0.00000000	      0.02548731	      0.00709627	     -0.00442331	    -19.54621114	     37.33721886	    -21.65470484	    102.32167482	     89.99559364	      0.00000000	      0.00000000	     -0.00378129	     -0.01378312	     -0.00329317	     -7.85662013	     36.57977609	      3.66406595	     28.88163550	     89.99559364	      0.00000000	      0.00000000
